0
SECTION
2
HEADER
9
$INSUNITS
70
4
0
ENDSEC
0
SECTION
2
BLOCKS
0
BLOCK
8
0
2
BRACKET
70
0
10
0
20
0
30
0
0
LWPOLYLINE
8
0
90
6
70
1
10
0
20
0
10
120
20
0
10
120
20
120
10
90
20
120
10
90
20
30
10
0
20
30
0
CIRCLE
8
0
10
105
20
15
30
0
40
4
0
ENDBLK
8
0
0
ENDSEC
0
SECTION
2
ENTITIES
0
LINE
8
CUT
10
50
20
0
30
0
11
250
21
0
31
0
0
ARC
8
CUT
10
250
20
50
30
0
40
50
50
270
51
90
0
LINE
8
CUT
10
250
20
100
30
0
11
50
21
100
31
0
0
ARC
8
CUT
10
50
20
50
30
0
40
50
50
90
51
270
0
LWPOLYLINE
8
CUT
90
8
70
1
10
340
20
0
10
480
20
0
42
0.41421356237309503
10
500
20
20
10
500
20
100
42
0.41421356237309503
10
480
20
120
10
340
20
120
42
0.41421356237309503
10
320
20
100
10
320
20
20
42
0.41421356237309503
0
CIRCLE
8
CUT
10
620
20
60
30
0
40
60
0
CIRCLE
8
CUT
10
620
20
60
30
0
40
30
0
INSERT
8
CUT
2
BRACKET
10
0
20
200
30
0
0
INSERT
8
CUT
2
BRACKET
10
160
20
200
30
0
0
INSERT
8
CUT
2
BRACKET
10
440
20
200
30
0
50
90
0
LINE
8
DIM
10
0
20
-30
30
0
11
300
21
-30
31
0
0
TEXT
8
DIM
10
100
20
-45
30
0
40
10
1
300 x 100 SLOT
0
ENDSEC
0
EOF
